<mxfile host="app.diagrams.net" modified="2022-08-03T14:12:11.008Z" agent="5.0 (Windows NT 10.0; Win64; x64) AppleWebKit/537.36 (KHTML, like Gecko) Chrome/103.0.5060.114 Safari/537.36 Edg/103.0.1264.49" etag="DKHWrIpPg6iM-MfeF3w8" version="20.1.1" type="github">
  <diagram id="56Iubk55BjkynDyqkMCL" name="Page-1">
    <mxGraphModel dx="2201" dy="762" grid="1" gridSize="10" guides="1" tooltips="1" connect="1" arrows="1" fold="1" page="1" pageScale="1" pageWidth="827" pageHeight="1169" math="0" shadow="0">
      <root>
        <mxCell id="0" />
        <mxCell id="1" parent="0" />
        <mxCell id="0WuZAR5S5HJY4NrOXflC-2" value="An issue is added to the project repo" style="strokeWidth=2;html=1;shape=mxgraph.flowchart.terminator;whiteSpace=wrap;" vertex="1" parent="1">
          <mxGeometry x="40" y="40" width="120" height="80" as="geometry" />
        </mxCell>
        <mxCell id="0WuZAR5S5HJY4NrOXflC-6" value="" style="edgeStyle=orthogonalEdgeStyle;rounded=0;orthogonalLoop=1;jettySize=auto;html=1;" edge="1" parent="1" source="0WuZAR5S5HJY4NrOXflC-3" target="0WuZAR5S5HJY4NrOXflC-5">
          <mxGeometry relative="1" as="geometry" />
        </mxCell>
        <mxCell id="0WuZAR5S5HJY4NrOXflC-3" value="It gets assigned to some assignee(s)" style="whiteSpace=wrap;html=1;strokeWidth=2;" vertex="1" parent="1">
          <mxGeometry x="40" y="200" width="120" height="60" as="geometry" />
        </mxCell>
        <mxCell id="0WuZAR5S5HJY4NrOXflC-17" value="" style="edgeStyle=orthogonalEdgeStyle;rounded=0;orthogonalLoop=1;jettySize=auto;html=1;" edge="1" parent="1" source="0WuZAR5S5HJY4NrOXflC-5" target="0WuZAR5S5HJY4NrOXflC-16">
          <mxGeometry relative="1" as="geometry" />
        </mxCell>
        <mxCell id="0WuZAR5S5HJY4NrOXflC-5" value="The assignee(s) create a branch and begin working on the issue" style="whiteSpace=wrap;html=1;strokeWidth=2;" vertex="1" parent="1">
          <mxGeometry x="40" y="340" width="120" height="60" as="geometry" />
        </mxCell>
        <mxCell id="0WuZAR5S5HJY4NrOXflC-10" value="" style="edgeStyle=orthogonalEdgeStyle;rounded=0;orthogonalLoop=1;jettySize=auto;html=1;" edge="1" parent="1">
          <mxGeometry relative="1" as="geometry">
            <mxPoint x="100" y="120" as="sourcePoint" />
            <mxPoint x="100" y="200" as="targetPoint" />
          </mxGeometry>
        </mxCell>
        <mxCell id="0WuZAR5S5HJY4NrOXflC-11" value="&lt;span style=&quot;&quot;&gt;It gets added to &quot;Project backlog&quot;&lt;/span&gt;" style="text;html=1;align=center;verticalAlign=middle;resizable=0;points=[];autosize=1;strokeColor=none;fillColor=none;" vertex="1" parent="1">
          <mxGeometry x="185" y="65" width="200" height="30" as="geometry" />
        </mxCell>
        <mxCell id="0WuZAR5S5HJY4NrOXflC-14" value="Which moves it into &quot;Sprint backlog&quot;" style="text;html=1;align=center;verticalAlign=middle;resizable=0;points=[];autosize=1;strokeColor=none;fillColor=none;" vertex="1" parent="1">
          <mxGeometry x="180" y="215" width="220" height="30" as="geometry" />
        </mxCell>
        <mxCell id="0WuZAR5S5HJY4NrOXflC-15" value="Which moves it into &quot;In progress&quot;" style="text;html=1;align=center;verticalAlign=middle;resizable=0;points=[];autosize=1;strokeColor=none;fillColor=none;" vertex="1" parent="1">
          <mxGeometry x="180" y="355" width="200" height="30" as="geometry" />
        </mxCell>
        <mxCell id="0WuZAR5S5HJY4NrOXflC-20" value="" style="edgeStyle=orthogonalEdgeStyle;rounded=0;orthogonalLoop=1;jettySize=auto;html=1;" edge="1" parent="1" source="0WuZAR5S5HJY4NrOXflC-16" target="0WuZAR5S5HJY4NrOXflC-19">
          <mxGeometry relative="1" as="geometry" />
        </mxCell>
        <mxCell id="0WuZAR5S5HJY4NrOXflC-16" value="When the assignee(s) are ready, they request a review" style="whiteSpace=wrap;html=1;strokeWidth=2;" vertex="1" parent="1">
          <mxGeometry x="40" y="480" width="120" height="60" as="geometry" />
        </mxCell>
        <mxCell id="0WuZAR5S5HJY4NrOXflC-18" value="This closes the original issue (moving it to done) and &lt;br&gt;adds the pull-request ticket to &quot;Project backlog&quot;" style="text;html=1;align=center;verticalAlign=middle;resizable=0;points=[];autosize=1;strokeColor=none;fillColor=none;" vertex="1" parent="1">
          <mxGeometry x="165" y="490" width="300" height="40" as="geometry" />
        </mxCell>
        <mxCell id="0WuZAR5S5HJY4NrOXflC-31" value="" style="edgeStyle=orthogonalEdgeStyle;rounded=0;orthogonalLoop=1;jettySize=auto;html=1;" edge="1" parent="1" source="0WuZAR5S5HJY4NrOXflC-19" target="0WuZAR5S5HJY4NrOXflC-30">
          <mxGeometry relative="1" as="geometry" />
        </mxCell>
        <mxCell id="0WuZAR5S5HJY4NrOXflC-19" value="Review of the pull request gets assigned to a reviewer" style="whiteSpace=wrap;html=1;strokeWidth=2;" vertex="1" parent="1">
          <mxGeometry x="40" y="620" width="120" height="60" as="geometry" />
        </mxCell>
        <mxCell id="0WuZAR5S5HJY4NrOXflC-21" value="Which moves it into &quot;Sprint backlog&quot;" style="text;html=1;align=center;verticalAlign=middle;resizable=0;points=[];autosize=1;strokeColor=none;fillColor=none;" vertex="1" parent="1">
          <mxGeometry x="185" y="635" width="220" height="30" as="geometry" />
        </mxCell>
        <mxCell id="0WuZAR5S5HJY4NrOXflC-24" value="What information should there be &lt;br&gt;on a issue or pull request ticket?" style="text;html=1;align=center;verticalAlign=middle;resizable=0;points=[];autosize=1;strokeColor=none;fillColor=none;" vertex="1" parent="1">
          <mxGeometry x="530" y="40" width="200" height="40" as="geometry" />
        </mxCell>
        <mxCell id="0WuZAR5S5HJY4NrOXflC-25" value="When should you use suggestions&lt;br&gt;versus &lt;br&gt;when should you contribute another pull request?" style="text;html=1;align=center;verticalAlign=middle;resizable=0;points=[];autosize=1;strokeColor=none;fillColor=none;" vertex="1" parent="1">
          <mxGeometry x="500" y="90" width="290" height="60" as="geometry" />
        </mxCell>
        <mxCell id="0WuZAR5S5HJY4NrOXflC-27" value="Branch protection?" style="text;html=1;align=center;verticalAlign=middle;resizable=0;points=[];autosize=1;strokeColor=none;fillColor=none;" vertex="1" parent="1">
          <mxGeometry x="585" y="160" width="120" height="30" as="geometry" />
        </mxCell>
        <mxCell id="0WuZAR5S5HJY4NrOXflC-35" value="" style="edgeStyle=orthogonalEdgeStyle;rounded=0;orthogonalLoop=1;jettySize=auto;html=1;" edge="1" parent="1" source="0WuZAR5S5HJY4NrOXflC-30" target="0WuZAR5S5HJY4NrOXflC-34">
          <mxGeometry relative="1" as="geometry" />
        </mxCell>
        <mxCell id="0WuZAR5S5HJY4NrOXflC-38" value="" style="edgeStyle=orthogonalEdgeStyle;rounded=0;orthogonalLoop=1;jettySize=auto;html=1;" edge="1" parent="1" source="0WuZAR5S5HJY4NrOXflC-30" target="0WuZAR5S5HJY4NrOXflC-37">
          <mxGeometry relative="1" as="geometry" />
        </mxCell>
        <mxCell id="0WuZAR5S5HJY4NrOXflC-30" value="&lt;br&gt;&lt;span style=&quot;color: rgb(0, 0, 0); font-family: Helvetica; font-size: 12px; font-style: normal; font-variant-ligatures: normal; font-variant-caps: normal; font-weight: 400; letter-spacing: normal; orphans: 2; text-align: center; text-indent: 0px; text-transform: none; widows: 2; word-spacing: 0px; -webkit-text-stroke-width: 0px; background-color: rgb(248, 249, 250); text-decoration-thickness: initial; text-decoration-style: initial; text-decoration-color: initial; float: none; display: inline !important;&quot;&gt;The reviewer&amp;nbsp;reviews the pull request&lt;/span&gt;" style="rhombus;whiteSpace=wrap;html=1;strokeWidth=2;" vertex="1" parent="1">
          <mxGeometry x="45" y="750" width="110" height="110" as="geometry" />
        </mxCell>
        <mxCell id="0WuZAR5S5HJY4NrOXflC-34" value="The reviewer a&lt;span style=&quot;color: rgb(0, 0, 0); font-family: Helvetica; font-size: 12px; font-style: normal; font-variant-ligatures: normal; font-variant-caps: normal; font-weight: 400; letter-spacing: normal; orphans: 2; text-align: center; text-indent: 0px; text-transform: none; widows: 2; word-spacing: 0px; -webkit-text-stroke-width: 0px; background-color: rgb(248, 249, 250); text-decoration-thickness: initial; text-decoration-style: initial; text-decoration-color: initial; float: none; display: inline !important;&quot;&gt;pproves and merges the pull request&lt;/span&gt;" style="strokeWidth=2;html=1;shape=mxgraph.flowchart.terminator;whiteSpace=wrap;" vertex="1" parent="1">
          <mxGeometry x="235" y="775" width="100" height="60" as="geometry" />
        </mxCell>
        <mxCell id="0WuZAR5S5HJY4NrOXflC-36" value="Which moves the pull request to done" style="text;html=1;align=center;verticalAlign=middle;resizable=0;points=[];autosize=1;strokeColor=none;fillColor=none;" vertex="1" parent="1">
          <mxGeometry x="350" y="790" width="220" height="30" as="geometry" />
        </mxCell>
        <mxCell id="0WuZAR5S5HJY4NrOXflC-48" value="" style="edgeStyle=orthogonalEdgeStyle;rounded=0;orthogonalLoop=1;jettySize=auto;html=1;" edge="1" parent="1" source="0WuZAR5S5HJY4NrOXflC-37" target="0WuZAR5S5HJY4NrOXflC-16">
          <mxGeometry relative="1" as="geometry">
            <mxPoint x="-40" y="970" as="targetPoint" />
            <Array as="points">
              <mxPoint x="-40" y="970" />
              <mxPoint x="-40" y="510" />
            </Array>
          </mxGeometry>
        </mxCell>
        <mxCell id="0WuZAR5S5HJY4NrOXflC-37" value="The reviewer requests changes" style="whiteSpace=wrap;html=1;strokeWidth=2;" vertex="1" parent="1">
          <mxGeometry x="40" y="940" width="120" height="60" as="geometry" />
        </mxCell>
        <mxCell id="0WuZAR5S5HJY4NrOXflC-39" value="How large should a pull request be?" style="text;html=1;align=center;verticalAlign=middle;resizable=0;points=[];autosize=1;strokeColor=none;fillColor=none;" vertex="1" parent="1">
          <mxGeometry x="540" y="190" width="210" height="30" as="geometry" />
        </mxCell>
        <mxCell id="0WuZAR5S5HJY4NrOXflC-40" value="What should a reviewer expect from an assignee?" style="text;html=1;align=center;verticalAlign=middle;resizable=0;points=[];autosize=1;strokeColor=none;fillColor=none;" vertex="1" parent="1">
          <mxGeometry x="500" y="230" width="290" height="30" as="geometry" />
        </mxCell>
        <mxCell id="0WuZAR5S5HJY4NrOXflC-41" value="&lt;span style=&quot;color: rgb(0, 0, 0); font-family: Helvetica; font-size: 12px; font-style: normal; font-variant-ligatures: normal; font-variant-caps: normal; font-weight: 400; letter-spacing: normal; orphans: 2; text-align: center; text-indent: 0px; text-transform: none; widows: 2; word-spacing: 0px; -webkit-text-stroke-width: 0px; background-color: rgb(248, 249, 250); text-decoration-thickness: initial; text-decoration-style: initial; text-decoration-color: initial; float: none; display: inline !important;&quot;&gt;What should an assignee expect from a reviewer?&lt;/span&gt;" style="text;whiteSpace=wrap;html=1;" vertex="1" parent="1">
          <mxGeometry x="510" y="270" width="300" height="40" as="geometry" />
        </mxCell>
        <mxCell id="0WuZAR5S5HJY4NrOXflC-42" value="&lt;span style=&quot;color: rgb(0, 0, 0); font-family: Helvetica; font-size: 12px; font-style: normal; font-variant-ligatures: normal; font-variant-caps: normal; font-weight: 400; letter-spacing: normal; orphans: 2; text-align: center; text-indent: 0px; text-transform: none; widows: 2; word-spacing: 0px; -webkit-text-stroke-width: 0px; background-color: rgb(248, 249, 250); text-decoration-thickness: initial; text-decoration-style: initial; text-decoration-color: initial; float: none; display: inline !important;&quot;&gt;Which moves it back into &quot;Sprint backlog&quot;&lt;/span&gt;" style="text;whiteSpace=wrap;html=1;" vertex="1" parent="1">
          <mxGeometry x="200" y="950" width="230" height="40" as="geometry" />
        </mxCell>
        <mxCell id="0WuZAR5S5HJY4NrOXflC-43" value="Do we need an &quot;In review&quot; column?" style="text;html=1;align=center;verticalAlign=middle;resizable=0;points=[];autosize=1;strokeColor=none;fillColor=none;" vertex="1" parent="1">
          <mxGeometry x="555" y="325" width="210" height="30" as="geometry" />
        </mxCell>
        <mxCell id="0WuZAR5S5HJY4NrOXflC-44" value="Do all tasks need multiple assignees?" style="text;html=1;align=center;verticalAlign=middle;resizable=0;points=[];autosize=1;strokeColor=none;fillColor=none;" vertex="1" parent="1">
          <mxGeometry x="560" y="375" width="220" height="30" as="geometry" />
        </mxCell>
      </root>
    </mxGraphModel>
  </diagram>
</mxfile>
